# xmcd
#
# Track frame offsets:
#	150
#	11496
#	20876
#	31743
#	46321
#	58269
#	69563
#	80918
#	96838
#	114971
#
# Disc length: 1685 seconds
#
# Revision: 1
# Processed by: cddbd v1.5.2PL0 Copyright (c) Steve Scherf et al.
# Submitted via: audiograbber 1.83.01
#
DISCID=8106930a
DTITLE=Tim Davis,  Matt Hiser  - Flying High
DYEAR=1900
DGENRE=
TTITLE0=Ground Speed
TTITLE1=Flying High
TTITLE2=Johnny  Henry
TTITLE3=E.M.D.
TTITLE4=Sally Ann
TTITLE5=Kentucky  Mandolin
TTITLE6=Pike County Breakdown
TTITLE7=Follow The Leader
TTITLE8=Manzanita
TTITLE9=Salt Creek
EXTD=
EXTT0=
EXTT1=
EXTT2=
EXTT3=
EXTT4=
EXTT5=
EXTT6=
EXTT7=
EXTT8=
EXTT9=
PLAYORDER=
